{"title":"rrh","uid":6419437,"size":736265029,"categoryP":"video","categoryS":"movies","magnet":"?xt=urn:btih:5dcd8821395933119f9fb9506bcce7d414e769e2&amp;dn=rrh&amp;tr=udp%3A%2F%2Ftracker.openbittorrent.com%3A80&amp;tr=udp%3A%2F%2Fopen.demonii.com%3A1337&amp;tr=udp%3A%2F%2Ftracker.coppersurfer.tk%3A6969&amp;tr=udp%3A%2F%2Fexodus.desync.com%3A6969","seeders":1,"leechers":0,"uploader":"SaM","files":2,"time":1306265813,"description":"extratorrent.com\n &lt;a href=&quot;\nhttp://extratorrent.com/torrent/2432937/&quot; rel=&quot;nofollow&quot; target=&quot;_NEW&quot;&gt;\nhttp://extratorrent.com/torrent/2432937/&lt;/a&gt;\n\nIMDB = http://www.imdb.com/title/tt1486185/\n\nTitle: Red Riding Hood\nYear: 2011\nRuntime: 100 mins\nVotes: 7,149\nRating: 4.9\nLanguage: English\nCountry: USA, Canada\nDirector: Catherine Hardwicke\nWriting By: David Johnson\nProduced By: Leonardo DiCaprio Catherine Hardwicke Michael Ireland Jennifer Davisson Killoran Alex Mace Jim Rowe Julie Yorn\nMusic: Alex Heffes Brian Reitzell\n\nPlot:-\n\nValerie (Seyfried) is a beautiful young woman torn between two men. She is in love with a brooding outsider, Peter (Fernandez), but her parents have arranged for her to marry the wealthy Henry (Irons). Unwilling to lose each other, Valerie and Peter are planning to run away together\n\nCast:\n\n... Amanda Seyfried as Valerie\n... Gary Oldman as Father Solomon\n... Billy Burke as Cesaire\n... Shiloh Fernandez as Peter\n... Max Irons as Henry Lazar\n... Virginia Madsen as Suzette\n... Lukas Haas as Father Auguste\n... Julie Christie as Grandmother\n... Shauna Kain as Roxanne\n... Michael Hogan as The Reeve\n\nFormat : AVI\nFormat/Info : Audio Video Interleave\nFile size : 702 MiB\nDuration : 1h 39mn\nOverall bit rate : 984 Kbps\nWriting application : MEncoder SVN-r1.0~rc3+svn20090426-4.4.3\nWriting library : VirtualDub build 32842/release\n\nVideo\nID : 0\nFormat : MPEG-4 Visual\nFormat profile : Advanced Simple@L5\nFormat settings, BVOP : Yes\nFormat settings, QPel : No\nFormat settings, GMC : No warppoints\nFormat settings, Matrix : Custom\nCodec ID : XVID\nCodec ID/Hint : XviD\nDuration : 1h 39mn\nBit rate : 850 Kbps\nWidth : 640 pixels\nHeight : 272 pixels\nDisplay aspect ratio : 2.35:1\nFrame rate : 24.000 fps\nOriginal frame rate : 25.000 fps\nResolution : 8 bits\nColorimetry : 4:2:0\nScan type : Progressive\nBits/(Pixel*Frame) : 0.204\nStream size : 607 MiB (86%)\nWriting library : XviD 58\n\nAudio\nID : 1\nFormat : MPEG Audio\nFormat version : Version 1\nFormat profile : Layer 3\nCodec ID : 55\nCodec ID/Hint : MP3\nDuration : 1h 35mn\nBit rate mode : Constant\nBit rate : 128 Kbps\nChannel(s) : 2 channels\nSampling rate : 44.1 KHz\nVideo delay : 2s 508ms\nStream size : 87.2 MiB (12%)\nAlignment : Split accross interleaves\nInterleave, duration : 27 ms (0.66 video frame)\nInterleave, preload duration : 1440 ms\n\n &lt;a href=&quot;\nhttp://shareimage.org/images/l6bwvvvtcbqwslgwm8.png&quot; rel=&quot;nofollow&quot; target=&quot;_NEW&quot;&gt;\nhttp://shareimage.org/images/l6bwvvvtcbqwslgwm8.png&lt;/a&gt;\n &lt;a href=&quot;\nhttp://shareimage.org/images/fn2zdnspn1mcns0a7j1.png&quot; rel=&quot;nofollow&quot; target=&quot;_NEW&quot;&gt;\nhttp://shareimage.org/images/fn2zdnspn1mcns0a7j1.png&lt;/a&gt;\n &lt;a href=&quot;\nhttp://shareimage.org/images/skp95hnzeupglz81x8by.png&quot; rel=&quot;nofollow&quot; target=&quot;_NEW&quot;&gt;\nhttp://shareimage.org/images/skp95hnzeupglz81x8by.png&lt;/a&gt;\n &lt;a href=&quot;\nhttp://stashbox.org/1119220/vlcsnap-2011-05-24-16h21m50s32.png&quot; rel=&quot;nofollow&quot; target=&quot;_NEW&quot;&gt;\nhttp://stashbox.org/1119220/vlcsnap-2011-05-24-16h21m50s32.png&lt;/a&gt;\n &lt;a href=&quot;\nhttp://stashbox.org/1119222/vlcsnap-2011-05-24-16h21m47s5.png&quot; rel=&quot;nofollow&quot; target=&quot;_NEW&quot;&gt;\nhttp://stashbox.org/1119222/vlcsnap-2011-05-24-16h21m47s5.png&lt;/a&gt;","torrent":{"xt":"urn:btih:5dcd8821395933119f9fb9506bcce7d414e769e2","amp;dn":"rrh","amp;tr":["udp%3A%2F%2Ftracker.openbittorrent.com%3A80","udp%3A%2F%2Fopen.demonii.com%3A1337","udp%3A%2F%2Ftracker.coppersurfer.tk%3A6969","udp%3A%2F%2Fexodus.desync.com%3A6969"],"infoHash":"5dcd8821395933119f9fb9506bcce7d414e769e2","infoHashBuffer":{"type":"Buffer","data":[93,205,136,33,57,89,51,17,159,159,185,80,107,204,231,212,20,231,105,226]},"announce":[],"urlList":[]}}